<svg version="1.2" baseProfile="tiny-ps" xmlns="http://www.w3.org/2000/svg" width="1278px"
	height="1280px" viewBox="0 0 1278 1280" preserveAspectRatio="xMidYMid meet">
	<g fill="#006e27">
		<path d="M907 751 l0 -69 137 0 137 0 0 69 0 69 -137 0 -137 0 0 -69z" />
	</g>
	<g fill="#2b7f3f">
		<path
			d="M636.2 752.8 l0.3 -71.3 138.8 -0.3 c138.2 -0.2 138.7 -0.2 138.7 1.8 0 1.3 -0.7 2 -2 2 -2 0 -2 0.7 -2 67.5 l0 67.5 -68 0 c-67.3 0 -68 0 -68 2 0 2 -0.7 2 -69 2 l-69 0 0.2 -71.2z" />
		<path d="M230 750.5 l0 -69.5 70.3 0.2 70.2 0.3 0.2 69.3 0.2 69.2 -70.5 0 -70.4 0 0 -69.5z" />
	</g>
	<g fill="#3e894e">
		<path
			d="M506 822 c0 -2 -0.7 -2 -69 -2 -65 0 -69 -0.1 -69.1 -1.7 -0.1 -1 -0.2 -31.5 -0.3 -67.8 l-0.1 -66 -67.2 -0.3 c-66.8 -0.2 -67.3 -0.2 -67.3 1.8 0 2 -0.6 2 -67.5 2 l-67.5 0 0 -68.5 0 -68.5 68 0 68 0 0 -68 0 -68 68 -0.2 68 -0.3 0 132.7 c0 81.8 0.4 132.9 0.9 133.3 1.2 0.7 263 0.7 264.2 -0.1 0.5 -0.3 0.9 -29.3 0.9 -67.5 l0 -66.9 66.8 0 c36.7 0 67.3 -0.4 67.9 -0.8 1 -0.6 1.3 -15.7 1.5 -67.8 l0.3 -66.9 68.7 -0.2 68.7 -0.1 0.3 2.1 0.3 2.2 67.8 0.3 67.7 0.2 0 66.8 c0 36.7 0 67.3 0 68 0 0.9 14.2 1.2 67.5 1.2 l67.5 0 0 67 0 67 -68.5 0 -68.5 0 0 -66.9 c0 -63.3 -0.1 -67 -1.8 -67.5 -1 -0.3 -30.2 -0.5 -65 -0.5 l-63.2 0.2 0 67.1 0 67.1 -137.2 0 -137.3 0 -0.3 68.3 c-0.2 60.2 0 68.2 1.3 68.2 0.8 0 1.5 0.7 1.5 1.5 0 1.2 -1.4 1.5 -6.5 1.5 -3.7 0 -6.5 -0.4 -6.5 -1 0 -0.6 -3.5 -1 -8.5 -1 -5 0 -8.5 0.4 -8.5 1 0 1.5 -14.7 1.3 -15.3 -0.2 -0.4 -1 -0.6 -1 -0.6 0 -0.1 1.5 -31.1 1.8 -31.1 0.2 0 -0.6 -3.5 -1 -8.5 -1 -5 0 -8.5 0.4 -8.5 1 0 1.5 -14.7 1.3 -15.3 -0.2 -0.4 -1 -0.6 -1 -0.6 0 -0.1 0.9 -3.4 1.2 -13.1 1.2 -12.3 0 -13 -0.1 -13 -2z" />
	</g>
	<g fill="#468e53">
		<path
			d="M511 822.5 c0 -0.8 0.6 -1.5 1.4 -1.5 0.8 0 1.7 -0.6 2 -1.2 0.5 -1 0.7 -1 1.2 0 0.3 0.6 1.8 1.2 3.4 1.2 1.6 0 3.1 -0.6 3.4 -1.2 0.5 -1 0.7 -1 1.2 0 0.7 1.4 5.4 1.6 5.4 0.2 0 -0.5 1.6 -1 3.5 -1 1.9 0 3.5 0.5 3.5 1 0 0.6 0.7 1 1.5 1 0.8 0 1.5 0.7 1.5 1.5 0 1.3 -2.2 1.5 -14 1.5 -11.8 0 -14 -0.2 -14 -1.5z" />
		<path
			d="M542 822.5 c0 -0.8 0.7 -1.5 1.5 -1.5 0.8 0 1.5 -0.4 1.5 -1 0 -0.6 4.5 -1 11.5 -1 7 0 11.5 0.4 11.5 1 0 0.6 0.7 1 1.5 1 0.8 0 1.5 0.7 1.5 1.5 0 1.3 -2.3 1.5 -14.5 1.5 -12.2 0 -14.5 -0.2 -14.5 -1.5z" />
		<path
			d="M575 822.5 c0 -0.8 0.6 -1.5 1.4 -1.5 0.8 0 1.7 -0.6 2 -1.2 0.5 -1 0.7 -1 1.2 0 0.3 0.6 1.8 1.2 3.4 1.2 1.6 0 3.1 -0.6 3.4 -1.2 0.5 -1 0.7 -1 1.2 0 0.7 1.4 5.4 1.6 5.4 0.2 0 -0.5 1.6 -1 3.5 -1 1.9 0 3.5 0.5 3.5 1 0 0.6 0.7 1 1.5 1 0.8 0 1.5 0.7 1.5 1.5 0 1.3 -2.2 1.5 -14 1.5 -11.8 0 -14 -0.2 -14 -1.5z" />
		<path
			d="M606 822.5 c0 -0.8 0.7 -1.5 1.5 -1.5 0.8 0 1.5 -0.4 1.5 -1 0 -0.6 4.5 -1 11.5 -1 7 0 11.5 0.4 11.5 1 0 0.6 0.7 1 1.5 1 0.8 0 1.5 0.7 1.5 1.5 0 1.3 -2.3 1.5 -14.5 1.5 -12.2 0 -14.5 -0.2 -14.5 -1.5z" />
		<path
			d="M372.5 684 l-5 -0.5 -0.3 -134 c-0.2 -118.3 0 -134 1.3 -134.8 0.8 -0.4 1.5 -1.5 1.5 -2.2 0 -1.3 8.9 -1.5 65.5 -1.5 l65.5 0 0 -66 0 -66 204.3 0.2 204.2 0.3 0.3 66.8 0.2 66.7 -4.2 0.1 c-2.4 0.1 -32.6 0.2 -67.3 0.3 l-63 0.1 -0.3 66.9 c-0.2 52.1 -0.5 67.2 -1.5 67.8 -0.6 0.4 -31.2 0.8 -67.9 0.8 l-66.8 0 0 67 c0 58.1 -0.2 67.1 -1.5 67.6 -1.8 0.7 -258.1 1.1 -265 0.4z" />
		<path
			d="M910.8 550.5 c-0.3 -1.3 -0.3 -2.7 0 -2.9 0.2 -0.3 30.5 -0.5 67.2 -0.6 l66.7 0 1.1 2.5 c0.7 1.4 1.2 2.8 1.2 3 0 0.3 -30.5 0.5 -67.9 0.5 l-67.9 0 -0.4 -2.5z" />
	</g>
	<g fill="#79a67f">
		<path d="M636 890 l0 -69 69 0 69 0 0 69 0 69 -69 0 -69 0 0 -69z" />
	</g>
	<g fill="#95b399">
		<path
			d="M635 890 c0 -68.3 0 -69 2 -69 1.7 0 2 0.7 2.1 4.8 0 2.6 0 32.9 0 67.5 0 53.8 0.2 62.7 1.5 62.7 0.8 0 1.4 0.7 1.4 1.5 0 1 -1.1 1.5 -3.5 1.5 l-3.5 0 0 -69z" />
		<path
			d="M98.7 819.3 c-0.4 -0.3 -0.7 -30.7 -0.7 -67.5 l0 -66.8 67.5 0 67.5 0 0 67.5 0 67.5 -66.8 0 c-36.8 0 -67.2 -0.3 -67.5 -0.7z" />
		<path d="M911 617.5 l0 -67.5 67.8 0.2 67.7 0.3 0.3 67.3 0.2 67.2 -68 0 -68 0 0 -67.5z" />
	</g>
	<g fill="#abbfa7">
		<path
			d="M646 958 c0 -1.9 0.7 -2 11 -2 10.3 0 11 0.1 11 2 0 1.9 -0.7 2 -11 2 -10.3 0 -11 -0.1 -11 -2z" />
		<path d="M684 958 c0 -1.7 0.7 -2 4 -2 3.3 0 4 0.3 4 2 0 1.7 -0.7 2 -4 2 -3.3 0 -4 -0.3 -4 -2z" />
		<path d="M696 958 c0 -1.8 0.7 -2 6 -2 5.3 0 6 0.2 6 2 0 1.8 -0.7 2 -6 2 -5.3 0 -6 -0.2 -6 -2z" />
		<path
			d="M710 958 c0 -1.9 0.7 -2 11 -2 10.3 0 11 0.1 11 2 0 1.9 -0.7 2 -11 2 -10.3 0 -11 -0.1 -11 -2z" />
		<path d="M748 958 c0 -1.7 0.7 -2 4 -2 3.3 0 4 0.3 4 2 0 1.7 -0.7 2 -4 2 -3.3 0 -4 -0.3 -4 -2z" />
		<path d="M760 958 c0 -1.8 0.7 -2 6 -2 5.3 0 6 0.2 6 2 0 1.8 -0.7 2 -6 2 -5.3 0 -6 -0.2 -6 -2z" />
		<path d="M506 823.5 l0 -2.5 66 0 66 0 0 2.5 0 2.5 -66 0 -66 0 0 -2.5z" />
	</g>
	<g fill="#a7c0ad">
		<path
			d="M637 1026 l0 -67 -65.5 0 -65.5 0 0 -68 0 -68 11.3 0 c7.5 0 11.7 -0.4 12.5 -1.2 0.9 -0.9 1.5 -0.9 2.4 0 1.7 1.7 17.4 1.6 18.2 0 0.5 -1.1 0.7 -1.1 1.2 0 0.8 1.7 40.5 1.7 42.2 0 0.9 -0.9 1.5 -0.9 2.4 0 1.6 1.6 17 1.6 18.6 0 0.9 -0.9 1.2 -0.9 1.2 0 0 0.9 2.9 1.2 10.1 1.2 5.5 0 9.8 -0.4 9.5 -0.8 -0.3 -0.5 0.1 -0.9 0.9 -0.9 1.1 0 1.5 1.2 1.5 4.4 0 2.3 0.5 4.3 1 4.3 0.6 0 1 0.9 1 2 0 1.1 -0.4 2 -1 2 -0.6 0 -1 4 -1 10 0 6 0.4 10 1 10 0.6 0 1 0.9 1 2 0 1.1 -0.4 2 -1 2 -0.5 0 -1 2 -1 4.5 0 2.5 0.5 4.5 1 4.5 0.6 0 1 0.7 1 1.5 0 0.8 -0.4 1.5 -1 1.5 -0.6 0 -1 4.8 -1 12.5 0 7.7 0.4 12.5 1 12.5 0.6 0 1 0.7 1 1.5 0 0.8 -0.4 1.5 -1 1.5 -0.6 0 -1 4.2 -1 10.5 0 6.3 0.4 10.5 1 10.5 0.6 0 1 0.7 1 1.5 0 0.8 -0.4 1.5 -1 1.5 -0.5 0 -1 2 -1 4.5 0 2.5 0.5 4.5 1 4.5 0.6 0 1 0.9 1 2 0 1.1 -0.4 2 -1 2 -0.6 0 -1 4.1 -1 10.4 l0 10.3 8.3 0.5 c4.5 0.3 35.1 0.4 68 0.3 l59.7 -0.2 0 68.3 0 68.4 -68.5 0 -68.5 0 0 -67z" />
		<path
			d="M507.3 821.3 c0.9 -0.2 2.5 -0.2 3.5 0 0.9 0.3 0.1 0.5 -1.8 0.5 -1.9 0 -2.7 -0.2 -1.7 -0.5z" />
		<path
			d="M571.3 821.3 c0.9 -0.2 2.5 -0.2 3.5 0 0.9 0.3 0.1 0.5 -1.8 0.5 -1.9 0 -2.7 -0.2 -1.7 -0.5z" />
	</g>
	<g fill="#acbeb0">
		<path
			d="M637 1090.5 c0 -2.4 0.5 -3.5 1.5 -3.5 0.8 0 1.5 0.7 1.5 1.5 0 1.3 8.1 1.5 67 1.5 66.3 0 67 0 67 2 0 2 -0.7 2 -68.5 2 l-68.5 0 0 -3.5z" />
		<path d="M639.3 959.5 c0 -2.2 0.2 -3 0.4 -1.7 0.2 1.2 0.2 3 0 4 -0.3 0.9 -0.5 -0.1 -0.4 -2.3z" />
		<path
			d="M664.8 959.3 c8.4 -0.2 21.9 -0.2 30 0 8.1 0.1 1.2 0.3 -15.3 0.3 -16.5 0 -23.1 -0.2 -14.7 -0.3z" />
		<path
			d="M729.8 959.3 c8.4 -0.2 21.9 -0.2 30 0 8.1 0.1 1.2 0.3 -15.3 0.3 -16.5 0 -23.1 -0.2 -14.7 -0.3z" />
		<path d="M674.8 957.3 c2.3 -0.2 5.9 -0.2 8 0 2 0.2 0.1 0.4 -4.3 0.4 -4.4 0 -6.1 -0.2 -3.7 -0.4z" />
		<path d="M738.8 957.3 c2.3 -0.2 5.9 -0.2 8 0 2 0.2 0.1 0.4 -4.3 0.4 -4.4 0 -6.1 -0.2 -3.7 -0.4z" />
		<path d="M370 346.5 l0 -67.5 67 0 67 0 0 67.5 0 67.5 -67 0 -67 0 0 -67.5z" />
	</g>
	<g fill="#bfcdc0">
		<path
			d="M636 1156.5 c0 -68.8 0 -69.5 2 -69.5 1.3 0 2 0.7 2 2 0 2 0.7 2 67 2 l67 0 0 67.5 0 67.5 -69 0 -69 0 0 -69.5z" />
		<path
			d="M635 1079.5 c0 -3.1 0.3 -3.5 2.5 -3.5 2.2 0 2.5 0.4 2.5 3.5 0 3.1 -0.3 3.5 -2.5 3.5 -2.2 0 -2.5 -0.4 -2.5 -3.5z" />
		<path
			d="M635 1015.5 c0 -3.1 0.3 -3.5 2.5 -3.5 2.2 0 2.5 0.4 2.5 3.5 0 3.1 -0.3 3.5 -2.5 3.5 -2.2 0 -2.5 -0.4 -2.5 -3.5z" />
		<path
			d="M635 959 c0 -2.5 0.4 -3 2.5 -3 2.1 0 2.5 0.5 2.5 3 0 2.5 -0.4 3 -2.5 3 -2.1 0 -2.5 -0.5 -2.5 -3z" />
	</g>
	<g fill="#dee3de">
		<path
			d="M505.8 1225.3 c-0.2 -0.5 -0.2 -61.2 0 -135 l0.4 -134.3 66.9 0 c60.8 0 70.6 0.3 65.7 2.3 -1 0.4 -1 0.6 0 0.6 0.9 0.1 1.2 6.4 1.2 28 0 21.4 -0.3 28.1 -1.2 28.4 -1 0.4 -1 0.6 0 0.6 1.8 0.1 1.8 63.1 0 63.1 -0.8 0 -0.9 0.3 -0.3 0.8 0.7 0.4 0.9 25.7 0.7 73.5 l-0.3 72.7 -66.4 0 c-36.5 0 -66.5 -0.3 -66.7 -0.7z" />
	</g>
</svg>